<?xml version="1.0" encoding="UTF-8" standalone="no"?>
<svg
   xmlns:dc="http://purl.org/dc/elements/1.1/"
   xmlns:cc="http://creativecommons.org/ns#"
   xmlns:rdf="http://www.w3.org/1999/02/22-rdf-syntax-ns#"
   xmlns:svg="http://www.w3.org/2000/svg"
   xmlns="http://www.w3.org/2000/svg"
   id="svg8"
   version="1.1"
   viewBox="0 0 8.4666665 8.466667"
   height="32"
   width="32">
  <defs
     id="defs2">
    <pattern
       id="EMFhbasepattern"
       patternUnits="userSpaceOnUse"
       width="6"
       height="6"
       x="0"
       y="0" />
    <pattern
       id="EMFhbasepattern-8"
       patternUnits="userSpaceOnUse"
       width="6"
       height="6"
       x="0"
       y="0" />
  </defs>
  <metadata
     id="metadata5">
    <rdf:RDF>
      <cc:Work
         rdf:about="">
        <dc:format>image/svg+xml</dc:format>
        <dc:type
           rdf:resource="http://purl.org/dc/dcmitype/StillImage" />
        <dc:title></dc:title>
      </cc:Work>
    </rdf:RDF>
  </metadata>
  <g
     id="layer1">
    <g
       style="stroke-width:0.852963"
       transform="matrix(1.1723844,0,0,1.1723844,-5.6402325,2.8900853)"
       id="g1030">
      <path
         id="path963"
         d="M 4.9777767,-0.14286471 H 9.2329542 V -1.4221991 L 11.800894,1.1457404 9.2329542,3.7136796 V 2.4250749 H 4.9777767 Z"
         style="fill:#ffffff;fill-opacity:1;fill-rule:evenodd;stroke:none;stroke-width:0.225679" />
      <path
         id="path965"
         d="m 4.9777767,-0.30973441 v 0.1668697 H 4.810907 v -0.1668697 z"
         style="fill:#000000;fill-opacity:1;fill-rule:evenodd;stroke:none;stroke-width:0.225679" />
      <path
         id="path967"
         d="m 4.9777767,0.02400499 v -0.1668697 -0.1668697 h 4.2551775 v 0.1668697 0.1668697 z"
         style="fill:#000000;fill-opacity:1;fill-rule:evenodd;stroke:none;stroke-width:0.225679" />
      <path
         id="path969"
         d="m 9.2329542,0.02400499 v -0.1668697 H 9.399824 v 0.1668697 z"
         style="fill:#000000;fill-opacity:1;fill-rule:evenodd;stroke:none;stroke-width:0.225679" />
      <path
         id="path971"
         d="M 9.399824,-0.14286471 H 9.2329542 9.0660846 V -1.4221991 H 9.2329542 9.399824 Z"
         style="fill:#000000;fill-opacity:1;fill-rule:evenodd;stroke:none;stroke-width:0.225679" />
      <path
         id="path973"
         d="m 9.3534714,-1.5427161 -0.1205172,0.120517 H 9.0660846 v -0.3986332 z"
         style="fill:#000000;fill-opacity:1;fill-rule:evenodd;stroke:none;stroke-width:0.225679" />
      <path
         id="path975"
         d="m 9.1124373,-1.3016821 0.1205169,-0.120517 0.1205172,-0.120517 2.5679396,2.5679393 -0.120517,0.1205172 -0.120517,0.1205169 z"
         style="fill:#000000;fill-opacity:1;fill-rule:evenodd;stroke:none;stroke-width:0.225679" />
      <path
         id="path977"
         d="M 11.921411,1.2662573 11.800894,1.1457404 11.921411,1.0252232 12.032657,1.1457404 Z"
         style="fill:#000000;fill-opacity:1;fill-rule:evenodd;stroke:none;stroke-width:0.225679" />
      <path
         id="path979"
         d="M 11.680377,1.0252232 11.800894,1.1457404 11.921411,1.2662573 9.3534714,3.8341968 9.2329542,3.7136796 9.1124373,3.5931627 Z"
         style="fill:#000000;fill-opacity:1;fill-rule:evenodd;stroke:none;stroke-width:0.225679" />
      <path
         id="path981"
         d="M 9.0660846,3.7136796 H 9.2329542 L 9.3534714,3.8341968 9.0660846,4.112313 Z"
         style="fill:#000000;fill-opacity:1;fill-rule:evenodd;stroke:none;stroke-width:0.225679" />
      <path
         id="path983"
         d="M 9.399824,3.7136796 H 9.2329542 9.0660846 V 2.4250749 H 9.2329542 9.399824 Z"
         style="fill:#000000;fill-opacity:1;fill-rule:evenodd;stroke:none;stroke-width:0.225679" />
      <path
         id="path985"
         d="M 9.399824,2.4250749 H 9.2329542 V 2.2582051 H 9.399824 Z"
         style="fill:#000000;fill-opacity:1;fill-rule:evenodd;stroke:none;stroke-width:0.225679" />
      <path
         id="path987"
         d="M 9.2329542,2.2582051 V 2.4250749 2.5919444 H 4.9777767 V 2.4250749 2.2582051 Z"
         style="fill:#000000;fill-opacity:1;fill-rule:evenodd;stroke:none;stroke-width:0.225679" />
      <path
         id="path989"
         d="M 4.810907,2.4250749 H 4.9777767 V 2.5919444 H 4.810907 Z"
         style="fill:#000000;fill-opacity:1;fill-rule:evenodd;stroke:none;stroke-width:0.225679" />
      <path
         id="path991"
         d="M 5.1446464,2.4250749 H 4.9777767 4.810907 v -2.56793961 h 0.1668697 0.1668697 z"
         style="fill:#000000;fill-opacity:1;fill-rule:evenodd;stroke:none;stroke-width:0.225679" />
    </g>
  </g>
</svg>
