<?xml version="1.0" encoding="UTF-8" standalone="no"?>
<svg
   xmlns:dc="http://purl.org/dc/elements/1.1/"
   xmlns:cc="http://creativecommons.org/ns#"
   xmlns:rdf="http://www.w3.org/1999/02/22-rdf-syntax-ns#"
   xmlns:svg="http://www.w3.org/2000/svg"
   xmlns="http://www.w3.org/2000/svg"
   id="svg8"
   version="1.1"
   viewBox="0 0 8.4666665 8.466667"
   height="32"
   width="32">
  <defs
     id="defs2">
    <pattern
       id="EMFhbasepattern"
       patternUnits="userSpaceOnUse"
       width="6"
       height="6"
       x="0"
       y="0" />
  </defs>
  <metadata
     id="metadata5">
    <rdf:RDF>
      <cc:Work
         rdf:about="">
        <dc:format>image/svg+xml</dc:format>
        <dc:type
           rdf:resource="http://purl.org/dc/dcmitype/StillImage" />
        <dc:title></dc:title>
      </cc:Work>
    </rdf:RDF>
  </metadata>
  <g
     id="layer1">
    <g
       style="stroke-width:0.852962"
       transform="matrix(1.1723844,0,0,1.1723844,-1.5274014,-0.64113602)"
       id="g903">
      <path
         id="path836"
         d="m 1.4696861,2.8691299 h 4.25518 v -1.27933 l 2.56794,2.56794 -2.56794,2.56794 v -1.28861 h -4.25518 z"
         style="fill:#ae78d6;fill-opacity:1;fill-rule:evenodd;stroke:none;stroke-width:0.225679" />
      <path
         id="path838"
         d="m 1.4696861,2.7022599 v 0.16687 h -0.16687 v -0.16687 z"
         style="fill:#000000;fill-opacity:1;fill-rule:evenodd;stroke:none;stroke-width:0.225679" />
      <path
         id="path840"
         d="m 1.4696861,3.0359999 v -0.16687 -0.16687 h 4.25518 v 0.16687 0.16687 z"
         style="fill:#000000;fill-opacity:1;fill-rule:evenodd;stroke:none;stroke-width:0.225679" />
      <path
         id="path842"
         d="m 5.7248661,3.0359999 v -0.16687 h 0.16687 v 0.16687 z"
         style="fill:#000000;fill-opacity:1;fill-rule:evenodd;stroke:none;stroke-width:0.225679" />
      <path
         id="path844"
         d="m 5.8917361,2.8691299 h -0.16687 -0.16687 v -1.27933 h 0.16687 0.16687 z"
         style="fill:#000000;fill-opacity:1;fill-rule:evenodd;stroke:none;stroke-width:0.225679" />
      <path
         id="path846"
         d="m 5.8453761,1.4692799 -0.12051,0.12052 h -0.16687 v -0.39863 z"
         style="fill:#000000;fill-opacity:1;fill-rule:evenodd;stroke:none;stroke-width:0.225679" />
      <path
         id="path848"
         d="m 5.6043461,1.7103199 0.12052,-0.12052 0.12051,-0.12052 2.56794,2.56794 -0.12051,0.12052 -0.12052,0.12051 z"
         style="fill:#000000;fill-opacity:1;fill-rule:evenodd;stroke:none;stroke-width:0.225679" />
      <path
         id="path850"
         d="m 8.4133161,4.2782499 -0.12051,-0.12051 0.12051,-0.12052 0.11125,0.12052 z"
         style="fill:#000000;fill-opacity:1;fill-rule:evenodd;stroke:none;stroke-width:0.225679" />
      <path
         id="path852"
         d="m 8.1722861,4.0372199 0.12052,0.12052 0.12051,0.12051 -2.56794,2.56794 -0.12051,-0.12051 -0.12052,-0.12052 z"
         style="fill:#000000;fill-opacity:1;fill-rule:evenodd;stroke:none;stroke-width:0.225679" />
      <path
         id="path854"
         d="m 5.5579961,6.7256799 h 0.16687 l 0.12051,0.12051 -0.28738,0.27812 z"
         style="fill:#000000;fill-opacity:1;fill-rule:evenodd;stroke:none;stroke-width:0.225679" />
      <path
         id="path856"
         d="m 5.8917361,6.7256799 h -0.16687 -0.16687 v -1.28861 h 0.16687 0.16687 z"
         style="fill:#000000;fill-opacity:1;fill-rule:evenodd;stroke:none;stroke-width:0.225679" />
      <path
         id="path858"
         d="m 5.8917361,5.4370699 h -0.16687 v -0.16687 h 0.16687 z"
         style="fill:#000000;fill-opacity:1;fill-rule:evenodd;stroke:none;stroke-width:0.225679" />
      <path
         id="path860"
         d="m 5.7248661,5.2701999 v 0.16687 0.16687 h -4.25518 v -0.16687 -0.16687 z"
         style="fill:#000000;fill-opacity:1;fill-rule:evenodd;stroke:none;stroke-width:0.225679" />
      <path
         id="path862"
         d="m 1.3028161,5.4370699 h 0.16687 v 0.16687 h -0.16687 z"
         style="fill:#000000;fill-opacity:1;fill-rule:evenodd;stroke:none;stroke-width:0.225679" />
      <path
         id="path864"
         d="m 1.6365561,5.4370699 h -0.16687 -0.16687 v -2.56794 h 0.16687 0.16687 z"
         style="fill:#000000;fill-opacity:1;fill-rule:evenodd;stroke:none;stroke-width:0.225679" />
    </g>
  </g>
</svg>
